<?xml version="1.0" encoding="utf-8"?><!--Generator: Adobe Illustrator 20.1.0, SVG Export Plug-In . SVG Version: 6.00 Build 0)--><svg version="1.1" id="Layer_1" xmlns="http://www.w3.org/2000/svg" xmlns:xlink="http://www.w3.org/1999/xlink" x="0px" y="0px" width="128.1px" height="32.6px" viewBox="0 0 565.1 132.6" style="enable-background:new 0 0 565.1 132.6;" xml:space="preserve"><style type="text/css">.st0{fill:#FFFFFF;}</style><g><path class="st0" d="M14.3,31.4c-0.6,0-1,0.5-1,1c0.2,4.2,1.9,8.1,4.6,11c0.4,0.5,1.2,0.4,1.6-0.1l2.9-4.3l-2.8-7.7H14.3z"/><path class="st0" d="M35.7,41.7h-9.1l-3.2,4.7c-0.3,0.5-0.2,1.2,0.4,1.5c2.2,1,4.7,1.6,7.3,1.6c2.6,0,5.1-0.6,7.3-1.6
		c0.6-0.3,0.7-1,0.4-1.5L35.7,41.7z"/><path class="st0" d="M58.2,0.4H4c-2.2,0-4,1.8-4,4v54.2c0,2.2,1.8,4,4,4h54.2c2.2,0,4-1.8,4-4V4.3C62.2,2.2,60.4,0.4,58.2,0.4z
		 M46.2,48.6c-1.2,1.1-2.6,2.1-4,2.9c-3.3,1.9-7.1,2.9-11.1,2.9c-4,0-7.8-1.1-11.1-2.9c-1.4-0.8-2.8-1.8-4-2.9
		c-4.7-4.2-7.6-10.2-7.6-17c0-0.1,0-0.1,0-0.2c0-1.7,0.2-3.3,0.6-4.9C11.2,16.4,20.3,8.8,31.1,8.8c10.8,0,19.9,7.6,22.2,17.7
		c0.4,1.6,0.6,3.2,0.6,4.9c0,0.1,0,0.1,0,0.2C53.9,38.3,50.9,44.4,46.2,48.6z"/><path class="st0" d="M47.9,31.4h-5.3l-2.8,7.7l2.9,4.3c0.4,0.5,1.1,0.6,1.6,0.1c2.7-2.9,4.4-6.8,4.6-11.1
		C49,31.9,48.5,31.4,47.9,31.4z"/><path class="st0" d="M15.4,26.5h31.4c0.7,0,1.2-0.7,0.9-1.4c-2.6-6.7-9.1-11.4-16.6-11.4c-7.6,0-14,4.7-16.6,11.4
		C14.2,25.8,14.7,26.5,15.4,26.5z"/><polygon class="st0" points="103.8,99.1 102.8,95.8 101.2,91 99.7,95.8 98.6,99.1 95.1,99.1 90.1,99.1 94.2,102 97,104.1 
		95.9,107.4 94.4,112.1 98.4,109.2 101.2,107.1 104,109.2 108.1,112.1 106.5,107.4 105.4,104.1 108.2,102 112.3,99.1 107.3,99.1 	
		"/><path class="st0" d="M128.3,70.4H74.1c-2.2,0-4,1.8-4,4v54.2c0,2.2,1.8,4,4,4h54.2c2.2,0,4-1.8,4-4V74.4
		C132.3,72.2,130.5,70.4,128.3,70.4z M126.1,94.9l-15,10.9l5.7,17.7c0.1,0.2-0.1,0.5-0.3,0.5c-0.1,0-0.1,0-0.2-0.1l-15-10.9
		l-15,10.9c-0.1,0-0.1,0.1-0.2,0.1c-0.2,0-0.4-0.2-0.3-0.5l5.7-17.7l-15-10.9c-0.3-0.2-0.1-0.6,0.2-0.6h18.6l5.7-17.7
		c0.1-0.2,0.2-0.2,0.3-0.2c0.1,0,0.3,0.1,0.3,0.2l5.7,17.7h18.6C126.2,94.3,126.4,94.7,126.1,94.9z"/><path class="st0" d="M74,62.6h54.2c2.2,0,4-1.8,4-4V4.4c0-2.2-1.8-4-4-4H74c-2.2,0-4,1.8-4,4v54.2C70.1,60.8,71.9,62.6,74,62.6z
		 M107.5,54.6L100.4,44l-0.3-8c0.1-0.3,0.2-0.8,0.4-1.3L113,54.6H107.5z M103.8,7.8c2.7,0,4.9,2.2,4.9,4.9c0,2.7-2.2,4.9-4.9,4.9
		c-0.6,0-1.1-0.1-1.6-0.3c-0.4-0.2-0.9-0.4-1.2-0.7c-1.2-0.9-2-2.3-2-3.9C99,10,101.1,7.8,103.8,7.8z M86,28.8
		c1.3-1.7,2.8-3.3,4.3-4.7c0.9-0.9,3-2.9,4.3-4c2.1-1.8,5.5-2.7,7.8-0.9c0.9,0.8,1.5,1.8,2,2.9c0.6,1.5,1.4,3.4,2,4.9
		c0,0,0,0.1,0.1,0.1c0.1,0.1,0.2,0.2,0.3,0.3c0,0,0.2,0.1,0.2,0.1l7,3.3l-1.8,4.4c0,0-1.9-0.7-2.1-0.8c-1.4-0.6-1.6-0.5-3-1.1
		c-0.8-0.3-0.7-0.4-1.5-0.7c-0.3-0.1-0.5-0.3-0.8-0.3c-0.8-0.3-1.8-1-3-4.1c0,0.1-2.7,7.7-2.7,7.7c0,1,0.1,4.2,0.3,6.3
		c0,0.6,0.1,1.2,0.1,1.5c0.1,1.9-0.5,2.6-1.8,3.8c-2.6,2.4-7.4,7.2-7.4,7.2l-3.8-3.2l7.3-7.8c0,0-0.8-4.7-0.9-5.2
		c-0.3-2.1-0.6-2.9-0.4-4.4c0-0.1,0-0.3,0.1-0.4l1.5-6.3c-0.6,0.5-1.4,1-2.3,1.9c-1.3,1.2-4.7,5.7-4.7,5.7l-3.6-2.4
		C83.5,32.2,85.5,29.5,86,28.8z"/><path class="st0" d="M58.2,70.4H4c-2.2,0-4,1.8-4,4v54.2c0,2.2,1.8,4,4,4h54.2c2.2,0,4-1.8,4-4V74.4C62.2,72.2,60.4,70.4,58.2,70.4
		z M8.1,119.2l14.5-35.4h1.6l-11.8,35.4H8.1z M33.3,119.2l-0.1-2.9h-4.3l-0.1,2.9H16.3l9.3-35.4h4.6l-0.1,2.9H32l-0.1-2.9h4.6
		l9.3,35.4H33.3z M49.8,119.2L38,83.8h1.6l14.5,35.4H49.8z"/><polygon class="st0" points="32.2,91.2 29.9,91.2 29.6,99.3 32.5,99.3 	"/><polygon class="st0" points="29.4,103.7 29.1,111.9 33,111.9 32.7,103.7 	"/><polygon class="st0" points="176,51 222.4,96.3 222.5,96.5 231.9,96.5 231.9,1.5 206.3,1.5 206.3,46.7 159.6,1.1 150.2,1.1 
		150.2,96.4 176,96.4 	"/><polygon class="st0" points="264.2,58.7 292,58.7 292,96.4 317.6,96.4 317.6,1.5 292,1.5 292,35.6 264.2,35.6 264.2,1.5 238.6,1.5 
		238.6,96.4 264.2,96.4 	"/><polygon class="st0" points="346.2,96.4 370.9,96.4 370.9,24 393.8,24 393.8,1.5 323.1,1.5 323.1,24 346.2,24 	"/><path class="st0" d="M407.6,90.7c7.2,5.1,16.7,7.6,26.2,7.6c9.6,0,19.3-2.5,26.5-7.6c7.3-5.1,12.2-12.7,12.2-22.8
		c0-11.9-4.7-18.6-11.7-22.4c-7-3.9-16.3-4.9-25.6-6c-3-0.3-5.9-0.7-8.2-1.4c-2.3-0.7-4.1-1.7-5.1-3.1c-0.7-1-1.1-2.1-1.1-3.6
		c0-0.2,0-0.5,0-0.7c0.2-2.6,1.8-4.6,4.3-6c2.4-1.4,5.7-2.2,8.8-2.2c3.1,0,6.1,0.7,8.2,2.1c2.2,1.4,3.6,3.5,3.6,6.3v0.5h23.8l0-0.5
		l0-0.5c0-10.1-4.6-17.8-11.4-22.8c-6.8-5.1-15.9-7.6-25-7.6c-9,0-18,2.5-24.8,7.5c-6.8,5-11.4,12.6-11.4,22.7c0,0.2,0,0.4,0,0.7v0
		c0.1,10.3,3.6,17.3,9.7,21.9c6.1,4.6,14.6,6.7,24.8,7.4h0l0,0c3.5,0.2,6.8,0.5,9.5,1.1c2.7,0.6,4.8,1.5,5.9,2.9
		c0.8,0.9,1.2,2.1,1.2,3.6c0,2.5-1.6,4.3-4.2,5.7c-2.6,1.3-6.1,2-9.7,2c-3.6,0-7.3-0.7-9.9-2.1c-2.7-1.4-4.4-3.7-4.4-6.5v-0.3h-24.2
		l0,0.5l0,0.4C395.6,77.9,400.4,85.7,407.6,90.7z"/><path class="st0" d="M469.3,95.8h23.4l5.5-11.8h37l5.5,11.8h23.4v-3.5L521.8,0.9h-10.3l-42.2,91.5V95.8z M516.6,39.6l0.5,1.1
		L527.4,63h-21.2L516.6,39.6z"/><path class="st0" d="M184.9,127.5c0,6.6,9.8,6.6,9.8,0C194.7,120.9,184.9,120.9,184.9,127.5z M187.4,127.5c0-3.4,4.8-3.4,4.8,0
		C192.2,131,187.4,131,187.4,127.5z"/><polygon class="st0" points="202.8,127.4 198,122.7 197.1,122.7 197.1,132.3 199.6,132.3 199.6,127.6 204.5,132.3 205.3,132.3 
		205.3,122.7 202.8,122.7 	"/><polygon class="st0" points="155.9,127.4 151,122.7 150.2,122.7 150.2,132.3 152.7,132.3 152.7,127.6 157.5,132.3 158.4,132.3 
		158.4,122.7 155.9,122.7 	"/><path class="st0" d="M164.5,122.6l-4.3,9.3v0.4h2.4l0.6-1.2h3.8l0.6,1.2h2.4v-0.4l-4.3-9.3H164.5z M163.9,129l1.1-2.5l1.1,2.5
		H163.9z"/><polygon class="st0" points="170.1,124.9 172.4,124.9 172.4,132.3 174.9,132.3 174.9,124.9 177.2,124.9 177.2,122.7 170.1,122.7 	
		"/><polygon class="st0" points="182.1,124.8 183.2,124.8 183.2,122.7 178.6,122.7 178.6,124.8 179.7,124.8 179.7,130.1 178.5,130.1 
		178.5,132.3 183.3,132.3 183.3,130.1 182.1,130.1 	"/><path class="st0" d="M211.4,122.6l-4.3,9.3v0.4h2.4l0.6-1.2h3.8l0.6,1.2h2.4v-0.4l-4.3-9.3H211.4z M210.9,129l1.1-2.5l1.1,2.5
		H210.9z"/><path class="st0" d="M363.7,130.1c-1.4,0-2.4-1.2-2.4-2.7c0-1.6,0.9-2.7,2.4-2.7c1,0,1.8,0.4,2.1,1.4h2.4c-0.4-2.6-2.5-3.6-4.5-3.6
		c-2.4,0-4.9,1.6-4.9,4.9c0,3.3,2.5,4.9,4.9,4.9c2,0,4.2-1.1,4.5-3.8h-2.4C365.5,129.6,364.7,130.1,363.7,130.1z"/><path class="st0" d="M319.6,122.7h-4.2v9.6h2.4v-2.8h1.3l1.6,2.8h2.7v-0.4l-1.9-3C324.1,127.2,323.4,122.7,319.6,122.7z
		 M319.6,127.3h-1.8v-2.4c0.6,0,1.2,0,1.8,0C321,124.9,321,127.3,319.6,127.3z"/><polygon class="st0" points="306.3,124.9 308.6,124.9 308.6,132.3 311,132.3 311,124.9 313.4,124.9 313.4,122.7 306.3,122.7 	"/><path class="st0" d="M329.1,122.6l-4.3,9.3v0.4h2.4l0.6-1.2h3.8l0.6,1.2h2.4v-0.4l-4.3-9.3H329.1z M328.5,129l1.1-2.5l1.1,2.5
		H328.5z"/><polygon class="st0" points="296.6,125.9 296.5,125.9 294.8,122.7 292.2,122.7 292.2,123.1 295.4,128.2 295.4,132.3 297.8,132.3 
		297.8,128.2 301,123.1 301,122.7 298.4,122.7 	"/><polygon class="st0" points="355.9,124.8 357.1,124.8 357.1,122.7 352.4,122.7 352.4,124.8 353.5,124.8 353.5,130.1 352.3,130.1 
		352.3,132.3 357.2,132.3 357.2,130.1 355.9,130.1 	"/><polygon class="st0" points="344.7,132.3 347.2,132.3 347.2,129.2 350.3,129.2 350.3,127 347.2,127 347.2,124.9 350.7,124.9 
		350.7,122.7 344.7,122.7 	"/><polygon class="st0" points="336.3,132.3 338.8,132.3 338.8,129.2 341.9,129.2 341.9,127 338.8,127 338.8,124.9 342.3,124.9 
		342.3,122.7 336.3,122.7 	"/><path class="st0" d="M252.6,126.8v2.1h2c-0.4,0.9-1.1,1.2-2.1,1.2c-1.5,0-2.4-1-2.4-2.6c0-1.5,0.8-2.7,2.4-2.7c1,0,1.6,0.3,2,1.1
		h2.4c-0.5-2.4-2.5-3.4-4.4-3.4c-2.4,0-4.9,1.6-4.9,4.9c0,3.3,2.5,4.9,4.9,4.9c1.8,0,3.6-0.8,4.3-2.8c0.3-0.9,0.3-1.8,0.3-2.8H252.6
		z"/><path class="st0" d="M286.8,122.6l-4.3,9.3v0.4h2.4l0.6-1.2h3.8l0.6,1.2h2.4v-0.4l-4.3-9.3H286.8z M286.3,129l1.1-2.5l1.1,2.5
		H286.3z"/><polygon class="st0" points="244.9,124.8 246,124.8 246,122.7 241.4,122.7 241.4,124.8 242.5,124.8 242.5,130.1 241.3,130.1 
		241.3,132.3 246.1,132.3 246.1,130.1 244.9,130.1 	"/><polygon class="st0" points="236.6,126.2 233.6,126.2 233.6,122.7 231.1,122.7 231.1,132.3 233.6,132.3 233.6,128.4 236.6,128.4 
		236.6,132.3 239.1,132.3 239.1,122.7 236.6,122.7 	"/><polygon class="st0" points="221.1,122.7 218.6,122.7 218.6,132.3 224.5,132.3 224.5,130.1 221.1,130.1 	"/><polygon class="st0" points="278.5,126.3 278.1,127.9 278,127.9 276.4,122.8 275.4,122.8 273.8,127.9 273.7,127.9 273.3,126.3 
		272.1,122.7 269.6,122.7 269.6,123.1 273,132.4 274.3,132.4 275.8,127.8 275.9,127.8 277.4,132.4 278.8,132.4 282.2,123.1 
		282.2,122.7 279.7,122.7 	"/><polygon class="st0" points="265.1,126.2 262.2,126.2 262.2,122.7 259.6,122.7 259.6,132.3 262.2,132.3 262.2,128.4 265.1,128.4 
		265.1,132.3 267.6,132.3 267.6,122.7 265.1,122.7 	"/><polygon class="st0" points="460.3,126.8 456.6,122.6 455.7,122.6 455.7,132.2 458.2,132.2 458.2,128 460.2,130.1 460.5,130.1 
		462.5,128 462.5,132.2 465,132.2 465,122.6 464.1,122.6 	"/><polygon class="st0" points="500.1,124.9 502.5,124.9 502.5,132.2 504.9,132.2 504.9,124.9 507.2,124.9 507.2,122.7 500.1,122.7 	
		"/><path class="st0" d="M513.5,122.7h-4.2v9.6h2.4v-2.8h1.3l1.6,2.8h2.7v-0.4l-1.9-3C517.9,127.2,517.2,122.7,513.5,122.7z
		 M513.5,127.3h-1.8v-2.4c0.6,0,1.2,0,1.8,0C514.9,124.9,514.8,127.3,513.5,127.3z"/><path class="st0" d="M522.9,122.6l-4.3,9.3v0.4h2.4l0.6-1.2h3.8l0.6,1.2h2.4v-0.4l-4.3-9.3H522.9z M522.4,129l1.1-2.5l1.1,2.5
		H522.4z"/><path class="st0" d="M494.9,126.6c-0.9-0.1-1.6-0.2-1.5-1c0.1-1.1,2.7-1.2,2.7,0h2.3c0.1-4.1-7.4-4.1-7.3,0c0,2.1,1.4,2.8,3.5,2.9
		c1,0.1,1.8,0.2,1.8,0.9c0,1.1-3,1.1-3-0.1H491c-0.1,4.2,7.7,4.1,7.7,0.1C498.7,127.1,496.8,126.8,494.9,126.6z"/><polygon class="st0" points="561.3,127.4 556.5,122.6 555.6,122.6 555.6,132.2 558.1,132.2 558.1,127.5 562.9,132.3 563.8,132.3 
		563.8,122.7 561.3,122.7 	"/><polygon class="st0" points="488.3,124.8 489.4,124.8 489.4,122.7 484.7,122.7 484.7,124.8 485.8,124.8 485.8,130.1 484.6,130.1 
		484.6,132.2 489.5,132.2 489.5,130.1 488.3,130.1 	"/><path class="st0" d="M543.4,127.5c0,6.6,9.8,6.6,9.8,0C553.2,120.9,543.4,120.9,543.4,127.5z M545.9,127.5c0-3.4,4.8-3.4,4.8,0
		C550.7,130.9,545.9,130.9,545.9,127.5z"/><polygon class="st0" points="528.5,124.9 530.9,124.9 530.9,132.2 533.3,132.2 533.3,124.9 535.7,124.9 535.7,122.7 528.5,122.7 	
		"/><polygon class="st0" points="540.6,124.8 541.7,124.8 541.7,122.7 537,122.7 537,124.8 538.2,124.8 538.2,130.1 536.9,130.1 
		536.9,132.2 541.8,132.2 541.8,130.1 540.6,130.1 	"/><polygon class="st0" points="424.1,125.9 424,125.9 422.3,122.7 419.6,122.7 419.6,123 422.8,128.2 422.8,132.2 425.3,132.2 
		425.3,128.2 428.5,123 428.5,122.7 425.8,122.7 	"/><polygon class="st0" points="411.2,124.9 413.6,124.9 413.6,132.2 416,132.2 416,124.9 418.3,124.9 418.3,122.7 411.2,122.7 	"/><polygon class="st0" points="395,132.2 397.5,132.2 397.5,129.1 400.6,129.1 400.6,127 397.5,127 397.5,124.9 401,124.9 401,122.7 
		395,122.7 	"/><polygon class="st0" points="405.8,128.4 409.1,128.4 409.1,126.2 405.8,126.2 405.8,124.9 409.4,124.9 409.4,122.7 403.4,122.7 
		403.4,132.2 409.5,132.2 409.5,130.1 405.8,130.1 	"/><path class="st0" d="M387.8,122.6l-4.3,9.3v0.4h2.4l0.6-1.2h3.8l0.6,1.2h2.4v-0.4l-4.3-9.3H387.8z M387.3,129l1.1-2.5l1.1,2.5
		H387.3z"/><path class="st0" d="M448.6,122.7H445v9.6h3.6C454.8,132.2,454.8,122.7,448.6,122.7z M448.6,130h-1.2v-5.1h1.2
		C451.6,124.9,451.6,130,448.6,130z"/><path class="st0" d="M378.5,126.6c-0.9-0.1-1.6-0.2-1.5-1c0.1-1.1,2.7-1.2,2.7,0h2.3c0.1-4.1-7.4-4.1-7.3,0c0,2.1,1.4,2.8,3.5,2.9
		c1,0.1,1.7,0.2,1.7,0.9c0,1.1-3,1.1-3-0.1h-2.4c-0.1,4.2,7.7,4.1,7.7,0.1C382.3,127.1,380.4,126.8,378.5,126.6z"/><polygon class="st0" points="470.8,124.8 472,124.8 472,122.7 467.3,122.7 467.3,124.8 468.4,124.8 468.4,130.1 467.2,130.1 
		467.2,132.2 472.1,132.2 472.1,130.1 470.8,130.1 	"/><polygon class="st0" points="479.9,127.4 475.1,122.6 474.2,122.6 474.2,132.2 476.7,132.2 476.7,127.5 481.6,132.3 482.4,132.3 
		482.4,122.7 479.9,122.7 	"/><path class="st0" d="M437.8,122.6l-4.3,9.3v0.4h2.4l0.6-1.2h3.8l0.6,1.2h2.4v-0.4l-4.3-9.3H437.8z M437.2,129l1.1-2.5l1.1,2.5
		H437.2z"/><rect x="150" y="108.4" class="st0" width="415.2" height="2.6"/></g></svg>